<mxfile host="app.diagrams.net" agent="Mozilla/5.0 (Windows NT 10.0; Win64; x64) AppleWebKit/537.36 (KHTML, like Gecko) Chrome/139.0.0.0 Safari/537.36 Edg/139.0.0.0" version="28.1.0" pages="2">
  <diagram name="Interpretability in FER" id="0">
    <mxGraphModel dx="1098" dy="576" grid="0" gridSize="10" guides="0" tooltips="1" connect="1" arrows="1" fold="1" page="0" pageScale="1" pageWidth="850" pageHeight="1100" math="0" shadow="0">
      <root>
        <mxCell id="0" />
        <mxCell id="1" parent="0" />
        <mxCell id="rootNode" value="Interpretability in FER" style="rounded=1;whiteSpace=wrap;html=1;fillColor=#dae8fc;" parent="1" vertex="1">
          <mxGeometry x="400" y="40" width="200" height="60" as="geometry" />
        </mxCell>
        <mxCell id="timing" value="1. Timing" style="rounded=1;whiteSpace=wrap;html=1;fillColor=#ffffff;" parent="1" vertex="1">
          <mxGeometry x="100" y="150" width="160" height="50" as="geometry" />
        </mxCell>
        <mxCell id="scope" value="2. Scope" style="rounded=1;whiteSpace=wrap;html=1;fillColor=#ffffff;" parent="1" vertex="1">
          <mxGeometry x="320" y="150" width="160" height="50" as="geometry" />
        </mxCell>
        <mxCell id="mechanism" value="3. Mechanism" style="rounded=1;whiteSpace=wrap;html=1;fillColor=#ffffff;" parent="1" vertex="1">
          <mxGeometry x="540" y="150" width="160" height="50" as="geometry" />
        </mxCell>
        <mxCell id="unit" value="4. Explanatory Unit" style="rounded=1;whiteSpace=wrap;html=1;fillColor=#ffffff;" parent="1" vertex="1">
          <mxGeometry x="760" y="150" width="180" height="50" as="geometry" />
        </mxCell>
        <mxCell id="intrinsic" value="1.1 Intrinsic (Built-in)&#xa;(e.g., fuzzy rules, decision trees)" style="rounded=1;whiteSpace=wrap;html=1;" parent="1" vertex="1">
          <mxGeometry x="128" y="230" width="200" height="60" as="geometry" />
        </mxCell>
        <mxCell id="posthoc" value="1.2 Post-hoc (After Training)&#xa;(e.g., Grad-CAM, SHAP, rule extraction)" style="rounded=1;whiteSpace=wrap;html=1;" parent="1" vertex="1">
          <mxGeometry x="128" y="310" width="200" height="60" as="geometry" />
        </mxCell>
        <mxCell id="global" value="2.1 Global Explanations&#xa;(e.g., rule sets, feature importance)" style="rounded=1;whiteSpace=wrap;html=1;" parent="1" vertex="1">
          <mxGeometry x="368" y="230" width="200" height="60" as="geometry" />
        </mxCell>
        <mxCell id="local" value="2.2 Local Explanations&#xa;(e.g., heatmaps for single FER image)" style="rounded=1;whiteSpace=wrap;html=1;" parent="1" vertex="1">
          <mxGeometry x="368" y="310" width="200" height="60" as="geometry" />
        </mxCell>
        <mxCell id="symbolic" value="3.1 Symbolic&#xa;(e.g., IF–THEN rules)" style="rounded=1;whiteSpace=wrap;html=1;" parent="1" vertex="1">
          <mxGeometry x="608" y="230" width="200" height="60" as="geometry" />
        </mxCell>
        <mxCell id="example" value="3.2 Example-based&#xa;(prototypes, counterfactuals)" style="rounded=1;whiteSpace=wrap;html=1;" parent="1" vertex="1">
          <mxGeometry x="608" y="310" width="200" height="60" as="geometry" />
        </mxCell>
        <mxCell id="feature" value="3.3 Feature Attribution&#xa;(e.g., saliency maps, occlusion tests)" style="rounded=1;whiteSpace=wrap;html=1;" parent="1" vertex="1">
          <mxGeometry x="608" y="390" width="200" height="60" as="geometry" />
        </mxCell>
        <mxCell id="raw" value="4.1 Raw Features&#xa;(Distances, angles, pixels)" style="rounded=1;whiteSpace=wrap;html=1;" parent="1" vertex="1">
          <mxGeometry x="848" y="230" width="200" height="60" as="geometry" />
        </mxCell>
        <mxCell id="faus" value="4.2 Facial Action Units (FAUs)&#xa;(muscle activations)" style="rounded=1;whiteSpace=wrap;html=1;" parent="1" vertex="1">
          <mxGeometry x="848" y="310" width="200" height="60" as="geometry" />
        </mxCell>
        <mxCell id="high" value="4.3 High-level Concepts&#xa;(e.g., raised eyebrows → surprise)" style="rounded=1;whiteSpace=wrap;html=1;" parent="1" vertex="1">
          <mxGeometry x="848" y="390" width="200" height="60" as="geometry" />
        </mxCell>
        <mxCell id="e1" parent="1" source="rootNode" target="timing" edge="1">
          <mxGeometry relative="1" as="geometry" />
        </mxCell>
        <mxCell id="e2" parent="1" source="rootNode" target="scope" edge="1">
          <mxGeometry relative="1" as="geometry" />
        </mxCell>
        <mxCell id="e3" parent="1" source="rootNode" target="mechanism" edge="1">
          <mxGeometry relative="1" as="geometry" />
        </mxCell>
        <mxCell id="e4" parent="1" source="rootNode" target="unit" edge="1">
          <mxGeometry relative="1" as="geometry" />
        </mxCell>
        <mxCell id="O1BTwzH_3_YLYSPsTwni-2" value="" style="endArrow=none;html=1;rounded=0;" parent="1" edge="1">
          <mxGeometry width="50" height="50" relative="1" as="geometry">
            <mxPoint x="110" y="340" as="sourcePoint" />
            <mxPoint x="110" y="200" as="targetPoint" />
          </mxGeometry>
        </mxCell>
        <mxCell id="O1BTwzH_3_YLYSPsTwni-3" value="" style="endArrow=classic;html=1;rounded=0;entryX=0;entryY=0.5;entryDx=0;entryDy=0;" parent="1" target="intrinsic" edge="1">
          <mxGeometry width="50" height="50" relative="1" as="geometry">
            <mxPoint x="110" y="260" as="sourcePoint" />
            <mxPoint x="160" y="210" as="targetPoint" />
          </mxGeometry>
        </mxCell>
        <mxCell id="O1BTwzH_3_YLYSPsTwni-4" value="" style="endArrow=classic;html=1;rounded=0;entryX=0;entryY=0.5;entryDx=0;entryDy=0;" parent="1" edge="1">
          <mxGeometry width="50" height="50" relative="1" as="geometry">
            <mxPoint x="109" y="340" as="sourcePoint" />
            <mxPoint x="127" y="340" as="targetPoint" />
          </mxGeometry>
        </mxCell>
        <mxCell id="O1BTwzH_3_YLYSPsTwni-7" value="" style="endArrow=none;html=1;rounded=0;" parent="1" edge="1">
          <mxGeometry width="50" height="50" relative="1" as="geometry">
            <mxPoint x="350" y="340" as="sourcePoint" />
            <mxPoint x="350" y="200" as="targetPoint" />
          </mxGeometry>
        </mxCell>
        <mxCell id="O1BTwzH_3_YLYSPsTwni-8" value="" style="endArrow=classic;html=1;rounded=0;entryX=0;entryY=0.5;entryDx=0;entryDy=0;" parent="1" edge="1">
          <mxGeometry width="50" height="50" relative="1" as="geometry">
            <mxPoint x="350" y="260" as="sourcePoint" />
            <mxPoint x="368" y="260" as="targetPoint" />
          </mxGeometry>
        </mxCell>
        <mxCell id="O1BTwzH_3_YLYSPsTwni-9" value="" style="endArrow=classic;html=1;rounded=0;entryX=0;entryY=0.5;entryDx=0;entryDy=0;" parent="1" edge="1">
          <mxGeometry width="50" height="50" relative="1" as="geometry">
            <mxPoint x="349" y="340" as="sourcePoint" />
            <mxPoint x="367" y="340" as="targetPoint" />
          </mxGeometry>
        </mxCell>
        <mxCell id="O1BTwzH_3_YLYSPsTwni-10" value="" style="endArrow=none;html=1;rounded=0;" parent="1" edge="1">
          <mxGeometry width="50" height="50" relative="1" as="geometry">
            <mxPoint x="590" y="340" as="sourcePoint" />
            <mxPoint x="590" y="200" as="targetPoint" />
          </mxGeometry>
        </mxCell>
        <mxCell id="O1BTwzH_3_YLYSPsTwni-11" value="" style="endArrow=classic;html=1;rounded=0;entryX=0;entryY=0.5;entryDx=0;entryDy=0;" parent="1" edge="1">
          <mxGeometry width="50" height="50" relative="1" as="geometry">
            <mxPoint x="590" y="260" as="sourcePoint" />
            <mxPoint x="608" y="260" as="targetPoint" />
          </mxGeometry>
        </mxCell>
        <mxCell id="O1BTwzH_3_YLYSPsTwni-12" value="" style="endArrow=classic;html=1;rounded=0;entryX=0;entryY=0.5;entryDx=0;entryDy=0;" parent="1" edge="1">
          <mxGeometry width="50" height="50" relative="1" as="geometry">
            <mxPoint x="589" y="340" as="sourcePoint" />
            <mxPoint x="607" y="340" as="targetPoint" />
          </mxGeometry>
        </mxCell>
        <mxCell id="O1BTwzH_3_YLYSPsTwni-13" value="" style="endArrow=none;html=1;rounded=0;" parent="1" edge="1">
          <mxGeometry width="50" height="50" relative="1" as="geometry">
            <mxPoint x="832" y="340" as="sourcePoint" />
            <mxPoint x="832" y="200" as="targetPoint" />
          </mxGeometry>
        </mxCell>
        <mxCell id="O1BTwzH_3_YLYSPsTwni-14" value="" style="endArrow=classic;html=1;rounded=0;entryX=0;entryY=0.5;entryDx=0;entryDy=0;" parent="1" edge="1">
          <mxGeometry width="50" height="50" relative="1" as="geometry">
            <mxPoint x="832" y="260" as="sourcePoint" />
            <mxPoint x="850" y="260" as="targetPoint" />
          </mxGeometry>
        </mxCell>
        <mxCell id="O1BTwzH_3_YLYSPsTwni-15" value="" style="endArrow=classic;html=1;rounded=0;entryX=0;entryY=0.5;entryDx=0;entryDy=0;" parent="1" edge="1">
          <mxGeometry width="50" height="50" relative="1" as="geometry">
            <mxPoint x="831" y="340" as="sourcePoint" />
            <mxPoint x="849" y="340" as="targetPoint" />
          </mxGeometry>
        </mxCell>
        <mxCell id="O1BTwzH_3_YLYSPsTwni-16" value="" style="endArrow=none;html=1;rounded=0;" parent="1" edge="1">
          <mxGeometry width="50" height="50" relative="1" as="geometry">
            <mxPoint x="589" y="430" as="sourcePoint" />
            <mxPoint x="590" y="340" as="targetPoint" />
          </mxGeometry>
        </mxCell>
        <mxCell id="O1BTwzH_3_YLYSPsTwni-17" value="" style="endArrow=classic;html=1;rounded=0;entryX=0;entryY=0.5;entryDx=0;entryDy=0;" parent="1" edge="1">
          <mxGeometry width="50" height="50" relative="1" as="geometry">
            <mxPoint x="590" y="429" as="sourcePoint" />
            <mxPoint x="608" y="429" as="targetPoint" />
          </mxGeometry>
        </mxCell>
        <mxCell id="q-lSJRcdjNq0DURp--i8-1" value="" style="endArrow=none;html=1;rounded=0;" edge="1" parent="1">
          <mxGeometry width="50" height="50" relative="1" as="geometry">
            <mxPoint x="831" y="429" as="sourcePoint" />
            <mxPoint x="832" y="339" as="targetPoint" />
          </mxGeometry>
        </mxCell>
        <mxCell id="q-lSJRcdjNq0DURp--i8-2" value="" style="endArrow=classic;html=1;rounded=0;entryX=0;entryY=0.5;entryDx=0;entryDy=0;" edge="1" parent="1">
          <mxGeometry width="50" height="50" relative="1" as="geometry">
            <mxPoint x="832" y="428" as="sourcePoint" />
            <mxPoint x="850" y="428" as="targetPoint" />
          </mxGeometry>
        </mxCell>
      </root>
    </mxGraphModel>
  </diagram>
  <diagram id="idyrpmZbz6LAuPkveKZJ" name="Page-2">
    <mxGraphModel dx="1098" dy="576" grid="1" gridSize="10" guides="1" tooltips="1" connect="1" arrows="1" fold="1" page="1" pageScale="1" pageWidth="850" pageHeight="1100" math="0" shadow="0">
      <root>
        <mxCell id="0" />
        <mxCell id="1" parent="0" />
      </root>
    </mxGraphModel>
  </diagram>
</mxfile>
